<mxfile host="app.diagrams.net" modified="2023-08-30T10:28:27.238Z" agent="Mozilla/5.0 (Windows NT 10.0; Win64; x64) AppleWebKit/537.36 (KHTML, like Gecko) Chrome/116.0.0.0 Safari/537.36" etag="eZz212jzmMRK6fqT6m3k" version="21.6.8" type="github">
  <diagram name="페이지-1" id="gJXqmfC_FduOThxGFTgX">
    <mxGraphModel dx="2116" dy="1047" grid="1" gridSize="10" guides="1" tooltips="1" connect="1" arrows="1" fold="1" page="1" pageScale="1" pageWidth="827" pageHeight="1169" math="0" shadow="0">
      <root>
        <mxCell id="0" />
        <mxCell id="1" parent="0" />
        <mxCell id="XlSBd1ULNjPI1XOx45w8-29" style="edgeStyle=orthogonalEdgeStyle;rounded=0;orthogonalLoop=1;jettySize=auto;html=1;dashed=1;endArrow=none;endFill=0;" edge="1" parent="1">
          <mxGeometry relative="1" as="geometry">
            <mxPoint x="280" y="2200" as="targetPoint" />
            <mxPoint x="280.0526315789475" y="70" as="sourcePoint" />
          </mxGeometry>
        </mxCell>
        <mxCell id="XlSBd1ULNjPI1XOx45w8-28" style="edgeStyle=orthogonalEdgeStyle;rounded=0;orthogonalLoop=1;jettySize=auto;html=1;exitX=0.5;exitY=1;exitDx=0;exitDy=0;dashed=1;endArrow=none;endFill=0;" edge="1" parent="1" source="XlSBd1ULNjPI1XOx45w8-26">
          <mxGeometry relative="1" as="geometry">
            <mxPoint x="80" y="2210" as="targetPoint" />
          </mxGeometry>
        </mxCell>
        <mxCell id="XlSBd1ULNjPI1XOx45w8-26" value="openDepositArr" style="text;whiteSpace=wrap;strokeColor=default;align=center;verticalAlign=middle;" vertex="1" parent="1">
          <mxGeometry x="20" y="30" width="120" height="40" as="geometry" />
        </mxCell>
        <mxCell id="XlSBd1ULNjPI1XOx45w8-35" value="" style="endArrow=block;html=1;rounded=0;endFill=1;" edge="1" parent="1">
          <mxGeometry width="50" height="50" relative="1" as="geometry">
            <mxPoint x="80" y="140" as="sourcePoint" />
            <mxPoint x="280" y="140" as="targetPoint" />
          </mxGeometry>
        </mxCell>
        <mxCell id="XlSBd1ULNjPI1XOx45w8-36" value="" style="endArrow=none;html=1;rounded=0;endFill=0;startArrow=block;startFill=1;dashed=1;" edge="1" parent="1">
          <mxGeometry width="50" height="50" relative="1" as="geometry">
            <mxPoint x="85" y="180" as="sourcePoint" />
            <mxPoint x="285" y="180" as="targetPoint" />
          </mxGeometry>
        </mxCell>
        <mxCell id="XlSBd1ULNjPI1XOx45w8-39" value="ArrMngr" style="text;strokeColor=default;fillColor=none;align=center;verticalAlign=middle;spacingLeft=4;spacingRight=4;overflow=hidden;points=[[0,0.5],[1,0.5]];portConstraint=eastwest;rotatable=0;whiteSpace=wrap;html=1;" vertex="1" parent="1">
          <mxGeometry x="230" y="30" width="116" height="40" as="geometry" />
        </mxCell>
        <mxCell id="XlSBd1ULNjPI1XOx45w8-40" value="DpstTxVldtnBizProc" style="text;whiteSpace=wrap;verticalAlign=middle;align=center;strokeColor=default;" vertex="1" parent="1">
          <mxGeometry x="370" y="30" width="140" height="40" as="geometry" />
        </mxCell>
        <mxCell id="XlSBd1ULNjPI1XOx45w8-41" value="openArr(arrCrtnIn)" style="text;whiteSpace=wrap;verticalAlign=middle;align=center;" vertex="1" parent="1">
          <mxGeometry x="120" y="100" width="130" height="40" as="geometry" />
        </mxCell>
        <mxCell id="XlSBd1ULNjPI1XOx45w8-42" value="Arr arr" style="text;whiteSpace=wrap;verticalAlign=middle;align=center;" vertex="1" parent="1">
          <mxGeometry x="130" y="150" width="70" height="40" as="geometry" />
        </mxCell>
        <mxCell id="XlSBd1ULNjPI1XOx45w8-43" value="" style="endArrow=block;html=1;rounded=0;endFill=1;" edge="1" parent="1">
          <mxGeometry width="50" height="50" relative="1" as="geometry">
            <mxPoint x="79" y="210" as="sourcePoint" />
            <mxPoint x="440" y="210" as="targetPoint" />
          </mxGeometry>
        </mxCell>
        <mxCell id="XlSBd1ULNjPI1XOx45w8-44" style="edgeStyle=orthogonalEdgeStyle;rounded=0;orthogonalLoop=1;jettySize=auto;html=1;dashed=1;endArrow=none;endFill=0;" edge="1" parent="1">
          <mxGeometry relative="1" as="geometry">
            <mxPoint x="440" y="2200" as="targetPoint" />
            <mxPoint x="439.52263157894754" y="70" as="sourcePoint" />
          </mxGeometry>
        </mxCell>
        <mxCell id="XlSBd1ULNjPI1XOx45w8-45" value="ArrSrvcCntr" style="text;whiteSpace=wrap;verticalAlign=middle;align=center;strokeColor=default;" vertex="1" parent="1">
          <mxGeometry x="530" y="30" width="100" height="40" as="geometry" />
        </mxCell>
        <mxCell id="XlSBd1ULNjPI1XOx45w8-46" style="edgeStyle=orthogonalEdgeStyle;rounded=0;orthogonalLoop=1;jettySize=auto;html=1;dashed=1;endArrow=none;endFill=0;" edge="1" parent="1">
          <mxGeometry relative="1" as="geometry">
            <mxPoint x="579" y="2200" as="targetPoint" />
            <mxPoint x="579.5226315789475" y="70" as="sourcePoint" />
          </mxGeometry>
        </mxCell>
        <mxCell id="XlSBd1ULNjPI1XOx45w8-47" value="" style="endArrow=block;html=1;rounded=0;endFill=1;" edge="1" parent="1">
          <mxGeometry width="50" height="50" relative="1" as="geometry">
            <mxPoint x="80" y="350" as="sourcePoint" />
            <mxPoint x="580" y="350" as="targetPoint" />
          </mxGeometry>
        </mxCell>
        <mxCell id="XlSBd1ULNjPI1XOx45w8-51" value="ArrTxMngr" style="text;whiteSpace=wrap;verticalAlign=middle;align=center;strokeColor=default;" vertex="1" parent="1">
          <mxGeometry x="650" y="30" width="90" height="40" as="geometry" />
        </mxCell>
        <mxCell id="XlSBd1ULNjPI1XOx45w8-52" style="edgeStyle=orthogonalEdgeStyle;rounded=0;orthogonalLoop=1;jettySize=auto;html=1;dashed=1;endArrow=none;endFill=0;" edge="1" parent="1">
          <mxGeometry relative="1" as="geometry">
            <mxPoint x="690" y="2200" as="targetPoint" />
            <mxPoint x="670.0026315789476" y="70" as="sourcePoint" />
          </mxGeometry>
        </mxCell>
        <mxCell id="XlSBd1ULNjPI1XOx45w8-53" value="" style="endArrow=block;html=1;rounded=0;endFill=1;" edge="1" parent="1">
          <mxGeometry width="50" height="50" relative="1" as="geometry">
            <mxPoint x="80" y="380" as="sourcePoint" />
            <mxPoint x="690" y="380" as="targetPoint" />
          </mxGeometry>
        </mxCell>
        <mxCell id="XlSBd1ULNjPI1XOx45w8-54" value="" style="endArrow=none;html=1;rounded=0;endFill=0;startArrow=block;startFill=1;dashed=1;" edge="1" parent="1">
          <mxGeometry width="50" height="50" relative="1" as="geometry">
            <mxPoint x="82" y="410" as="sourcePoint" />
            <mxPoint x="692" y="410" as="targetPoint" />
          </mxGeometry>
        </mxCell>
        <mxCell id="XlSBd1ULNjPI1XOx45w8-55" value="_getDpstTxVldtnBizProc()" style="text;whiteSpace=wrap;verticalAlign=middle;align=center;" vertex="1" parent="1">
          <mxGeometry x="280" y="180" width="170" height="40" as="geometry" />
        </mxCell>
        <mxCell id="XlSBd1ULNjPI1XOx45w8-56" value="_getArrSrvcCntr().validate()" style="text;whiteSpace=wrap;verticalAlign=middle;align=center;" vertex="1" parent="1">
          <mxGeometry x="430" y="320" width="130" height="40" as="geometry" />
        </mxCell>
        <mxCell id="XlSBd1ULNjPI1XOx45w8-59" value="int txSeqNbr" style="text;whiteSpace=wrap;align=center;verticalAlign=middle;" vertex="1" parent="1">
          <mxGeometry x="120" y="380" width="100" height="40" as="geometry" />
        </mxCell>
        <mxCell id="XlSBd1ULNjPI1XOx45w8-60" value="Arrangement" style="text;whiteSpace=wrap;verticalAlign=middle;align=center;strokeColor=default;" vertex="1" parent="1">
          <mxGeometry x="760" y="30" width="120" height="40" as="geometry" />
        </mxCell>
        <mxCell id="XlSBd1ULNjPI1XOx45w8-61" style="edgeStyle=orthogonalEdgeStyle;rounded=0;orthogonalLoop=1;jettySize=auto;html=1;dashed=1;endArrow=none;endFill=0;" edge="1" parent="1">
          <mxGeometry relative="1" as="geometry">
            <mxPoint x="827" y="2200" as="targetPoint" />
            <mxPoint x="827.5226315789475" y="70" as="sourcePoint" />
          </mxGeometry>
        </mxCell>
        <mxCell id="XlSBd1ULNjPI1XOx45w8-63" value="" style="endArrow=block;html=1;rounded=0;endFill=1;entryX=1;entryY=1;entryDx=0;entryDy=0;" edge="1" parent="1">
          <mxGeometry width="50" height="50" relative="1" as="geometry">
            <mxPoint x="80" y="449.47" as="sourcePoint" />
            <mxPoint x="825" y="450" as="targetPoint" />
          </mxGeometry>
        </mxCell>
        <mxCell id="XlSBd1ULNjPI1XOx45w8-65" value="doServiceAction(arrActionRequiredValue)" style="text;whiteSpace=wrap;verticalAlign=middle;align=center;" vertex="1" parent="1">
          <mxGeometry x="577" y="420" width="250" height="40" as="geometry" />
        </mxCell>
        <mxCell id="XlSBd1ULNjPI1XOx45w8-67" value="" style="endArrow=block;html=1;rounded=0;endFill=1;entryX=1;entryY=1;entryDx=0;entryDy=0;" edge="1" parent="1">
          <mxGeometry width="50" height="50" relative="1" as="geometry">
            <mxPoint x="82" y="230" as="sourcePoint" />
            <mxPoint x="827" y="230.52999999999997" as="targetPoint" />
          </mxGeometry>
        </mxCell>
        <mxCell id="XlSBd1ULNjPI1XOx45w8-68" value="getMainArrCustId()" style="text;whiteSpace=wrap;verticalAlign=middle;align=center;" vertex="1" parent="1">
          <mxGeometry x="697" y="200" width="130" height="40" as="geometry" />
        </mxCell>
        <mxCell id="XlSBd1ULNjPI1XOx45w8-70" value="" style="endArrow=none;html=1;rounded=0;endFill=0;startArrow=block;startFill=1;dashed=1;" edge="1" parent="1">
          <mxGeometry width="50" height="50" relative="1" as="geometry">
            <mxPoint x="440" y="260" as="sourcePoint" />
            <mxPoint x="830" y="260" as="targetPoint" />
          </mxGeometry>
        </mxCell>
        <mxCell id="XlSBd1ULNjPI1XOx45w8-71" value="validateTxPassword()" style="text;whiteSpace=wrap;verticalAlign=middle;align=center;" vertex="1" parent="1">
          <mxGeometry x="450" y="230" width="140" height="40" as="geometry" />
        </mxCell>
        <mxCell id="XlSBd1ULNjPI1XOx45w8-72" value="DpstArrOpnSvcIn" style="text;whiteSpace=wrap;verticalAlign=middle;align=center;strokeColor=default;" vertex="1" parent="1">
          <mxGeometry x="910" y="30" width="140" height="40" as="geometry" />
        </mxCell>
        <mxCell id="XlSBd1ULNjPI1XOx45w8-74" value="" style="endArrow=block;html=1;rounded=0;endFill=1;" edge="1" parent="1">
          <mxGeometry width="50" height="50" relative="1" as="geometry">
            <mxPoint x="82" y="290" as="sourcePoint" />
            <mxPoint x="980" y="290" as="targetPoint" />
          </mxGeometry>
        </mxCell>
        <mxCell id="XlSBd1ULNjPI1XOx45w8-75" value="getTxPswd()" style="text;whiteSpace=wrap;verticalAlign=middle;align=center;" vertex="1" parent="1">
          <mxGeometry x="860" y="260" width="100" height="40" as="geometry" />
        </mxCell>
        <mxCell id="XlSBd1ULNjPI1XOx45w8-76" value="" style="endArrow=none;html=1;rounded=0;endFill=0;startArrow=block;startFill=1;dashed=1;" edge="1" parent="1">
          <mxGeometry width="50" height="50" relative="1" as="geometry">
            <mxPoint x="440" y="320" as="sourcePoint" />
            <mxPoint x="980" y="320" as="targetPoint" />
          </mxGeometry>
        </mxCell>
        <mxCell id="XlSBd1ULNjPI1XOx45w8-77" value="validateTxPassword()" style="text;whiteSpace=wrap;verticalAlign=middle;align=center;" vertex="1" parent="1">
          <mxGeometry x="450" y="290" width="140" height="40" as="geometry" />
        </mxCell>
        <mxCell id="XlSBd1ULNjPI1XOx45w8-78" value="_getArrTxMngr().getTxSeqNbr()" style="text;whiteSpace=wrap;verticalAlign=middle;align=center;" vertex="1" parent="1">
          <mxGeometry x="492" y="350" width="200" height="40" as="geometry" />
        </mxCell>
        <mxCell id="XlSBd1ULNjPI1XOx45w8-79" value="" style="endArrow=block;html=1;rounded=0;endFill=1;" edge="1" parent="1">
          <mxGeometry width="50" height="50" relative="1" as="geometry">
            <mxPoint x="80" y="490" as="sourcePoint" />
            <mxPoint x="978" y="490" as="targetPoint" />
          </mxGeometry>
        </mxCell>
        <mxCell id="XlSBd1ULNjPI1XOx45w8-80" value="" style="endArrow=none;html=1;rounded=0;endFill=0;startArrow=block;startFill=1;dashed=1;" edge="1" parent="1">
          <mxGeometry width="50" height="50" relative="1" as="geometry">
            <mxPoint x="80" y="530" as="sourcePoint" />
            <mxPoint x="978" y="530" as="targetPoint" />
          </mxGeometry>
        </mxCell>
        <mxCell id="XlSBd1ULNjPI1XOx45w8-84" value="getRcptAmt1().add(in.getRcptAmt2()).add(in.getRcptAmt3()).add(in.getRcptAmt4())" style="text;whiteSpace=wrap;verticalAlign=middle;align=center;" vertex="1" parent="1">
          <mxGeometry x="510" y="460" width="470" height="40" as="geometry" />
        </mxCell>
        <mxCell id="XlSBd1ULNjPI1XOx45w8-85" value="BigDecimal rcptAmtSum" style="text;whiteSpace=wrap;verticalAlign=middle;align=center;" vertex="1" parent="1">
          <mxGeometry x="100" y="500" width="160" height="40" as="geometry" />
        </mxCell>
        <mxCell id="XlSBd1ULNjPI1XOx45w8-87" value="" style="endArrow=block;html=1;rounded=0;endFill=1;" edge="1" parent="1">
          <mxGeometry width="50" height="50" relative="1" as="geometry">
            <mxPoint x="80" y="570" as="sourcePoint" />
            <mxPoint x="978" y="570" as="targetPoint" />
          </mxGeometry>
        </mxCell>
        <mxCell id="XlSBd1ULNjPI1XOx45w8-88" value="getRcptDscd1().getRcptDscd2().getRcptDscd3().getRcptDscd4()" style="text;whiteSpace=wrap;verticalAlign=middle;align=center;" vertex="1" parent="1">
          <mxGeometry x="560" y="540" width="470" height="40" as="geometry" />
        </mxCell>
        <mxCell id="XlSBd1ULNjPI1XOx45w8-89" value="" style="endArrow=block;html=1;rounded=0;endFill=1;" edge="1" parent="1">
          <mxGeometry width="50" height="50" relative="1" as="geometry">
            <mxPoint x="80" y="610" as="sourcePoint" />
            <mxPoint x="978" y="610" as="targetPoint" />
          </mxGeometry>
        </mxCell>
        <mxCell id="XlSBd1ULNjPI1XOx45w8-90" value="getWhdrwlAcctNbr()" style="text;whiteSpace=wrap;verticalAlign=middle;align=center;" vertex="1" parent="1">
          <mxGeometry x="840" y="580" width="140" height="40" as="geometry" />
        </mxCell>
        <mxCell id="XlSBd1ULNjPI1XOx45w8-92" value="" style="endArrow=block;html=1;rounded=0;endFill=1;" edge="1" parent="1">
          <mxGeometry width="50" height="50" relative="1" as="geometry">
            <mxPoint x="82" y="640" as="sourcePoint" />
            <mxPoint x="980" y="640" as="targetPoint" />
          </mxGeometry>
        </mxCell>
        <mxCell id="XlSBd1ULNjPI1XOx45w8-93" value="getCashTrnsfrDscd()" style="text;whiteSpace=wrap;verticalAlign=middle;align=center;" vertex="1" parent="1">
          <mxGeometry x="840" y="610" width="140" height="40" as="geometry" />
        </mxCell>
        <mxCell id="XlSBd1ULNjPI1XOx45w8-94" value="getWhdrwlAcctNbr()" style="text;whiteSpace=wrap;verticalAlign=middle;align=center;" vertex="1" parent="1">
          <mxGeometry x="840" y="640" width="140" height="40" as="geometry" />
        </mxCell>
        <mxCell id="XlSBd1ULNjPI1XOx45w8-95" value="" style="endArrow=block;html=1;rounded=0;endFill=1;" edge="1" parent="1">
          <mxGeometry width="50" height="50" relative="1" as="geometry">
            <mxPoint x="82" y="670" as="sourcePoint" />
            <mxPoint x="980" y="670" as="targetPoint" />
          </mxGeometry>
        </mxCell>
        <mxCell id="XlSBd1ULNjPI1XOx45w8-96" value="DpstFnclTxCmnBizProc" style="text;whiteSpace=wrap;align=center;verticalAlign=middle;strokeColor=default;" vertex="1" parent="1">
          <mxGeometry x="1081" y="30" width="160" height="40" as="geometry" />
        </mxCell>
        <mxCell id="XlSBd1ULNjPI1XOx45w8-97" style="edgeStyle=orthogonalEdgeStyle;rounded=0;orthogonalLoop=1;jettySize=auto;html=1;dashed=1;endArrow=none;endFill=0;" edge="1" parent="1">
          <mxGeometry relative="1" as="geometry">
            <mxPoint x="1160" y="2200" as="targetPoint" />
            <mxPoint x="1161.1726315789476" y="70" as="sourcePoint" />
            <Array as="points">
              <mxPoint x="1161" y="1130" />
              <mxPoint x="1160" y="2190" />
            </Array>
          </mxGeometry>
        </mxCell>
        <mxCell id="XlSBd1ULNjPI1XOx45w8-98" style="edgeStyle=orthogonalEdgeStyle;rounded=0;orthogonalLoop=1;jettySize=auto;html=1;dashed=1;endArrow=none;endFill=0;" edge="1" parent="1">
          <mxGeometry relative="1" as="geometry">
            <mxPoint x="980" y="2200" as="targetPoint" />
            <mxPoint x="980.5226315789475" y="70" as="sourcePoint" />
          </mxGeometry>
        </mxCell>
        <mxCell id="XlSBd1ULNjPI1XOx45w8-99" value="" style="endArrow=block;html=1;rounded=0;endFill=1;" edge="1" parent="1">
          <mxGeometry width="50" height="50" relative="1" as="geometry">
            <mxPoint x="82" y="730" as="sourcePoint" />
            <mxPoint x="1160" y="730" as="targetPoint" />
          </mxGeometry>
        </mxCell>
        <mxCell id="XlSBd1ULNjPI1XOx45w8-100" value="executeWithdrawalService" style="text;whiteSpace=wrap;verticalAlign=middle;align=center;" vertex="1" parent="1">
          <mxGeometry x="990" y="700" width="170" height="40" as="geometry" />
        </mxCell>
        <mxCell id="XlSBd1ULNjPI1XOx45w8-102" value="" style="endArrow=none;html=1;rounded=0;endFill=0;startArrow=block;startFill=1;" edge="1" parent="1">
          <mxGeometry width="50" height="50" relative="1" as="geometry">
            <mxPoint x="980" y="760" as="sourcePoint" />
            <mxPoint x="1160" y="760" as="targetPoint" />
          </mxGeometry>
        </mxCell>
        <mxCell id="XlSBd1ULNjPI1XOx45w8-103" value="getWhdrwlAcctNbr()" style="text;whiteSpace=wrap;verticalAlign=middle;align=center;" vertex="1" parent="1">
          <mxGeometry x="1000" y="730" width="140" height="40" as="geometry" />
        </mxCell>
        <mxCell id="XlSBd1ULNjPI1XOx45w8-104" value="" style="endArrow=none;html=1;rounded=0;endFill=0;startArrow=block;startFill=1;" edge="1" parent="1">
          <mxGeometry width="50" height="50" relative="1" as="geometry">
            <mxPoint x="980" y="790" as="sourcePoint" />
            <mxPoint x="1160" y="790" as="targetPoint" />
          </mxGeometry>
        </mxCell>
        <mxCell id="XlSBd1ULNjPI1XOx45w8-105" value="getWhdrwlAcctPswd()" style="text;whiteSpace=wrap;verticalAlign=middle;align=center;" vertex="1" parent="1">
          <mxGeometry x="1000" y="760" width="140" height="40" as="geometry" />
        </mxCell>
        <mxCell id="XlSBd1ULNjPI1XOx45w8-106" value="" style="endArrow=none;html=1;rounded=0;endFill=0;startArrow=block;startFill=1;" edge="1" parent="1">
          <mxGeometry width="50" height="50" relative="1" as="geometry">
            <mxPoint x="980" y="820" as="sourcePoint" />
            <mxPoint x="1160" y="820" as="targetPoint" />
          </mxGeometry>
        </mxCell>
        <mxCell id="XlSBd1ULNjPI1XOx45w8-107" value="getCrncyCd()" style="text;whiteSpace=wrap;verticalAlign=middle;align=center;" vertex="1" parent="1">
          <mxGeometry x="1000" y="790" width="140" height="40" as="geometry" />
        </mxCell>
        <mxCell id="XlSBd1ULNjPI1XOx45w8-108" value="" style="endArrow=none;html=1;rounded=0;endFill=0;startArrow=block;startFill=1;" edge="1" parent="1">
          <mxGeometry width="50" height="50" relative="1" as="geometry">
            <mxPoint x="980" y="850" as="sourcePoint" />
            <mxPoint x="1160" y="850" as="targetPoint" />
          </mxGeometry>
        </mxCell>
        <mxCell id="XlSBd1ULNjPI1XOx45w8-109" value="getRckngDt()" style="text;whiteSpace=wrap;verticalAlign=middle;align=center;" vertex="1" parent="1">
          <mxGeometry x="1000" y="820" width="140" height="40" as="geometry" />
        </mxCell>
        <mxCell id="XlSBd1ULNjPI1XOx45w8-110" value="" style="endArrow=block;html=1;rounded=0;endFill=1;dashed=1;" edge="1" parent="1">
          <mxGeometry width="50" height="50" relative="1" as="geometry">
            <mxPoint x="980" y="880" as="sourcePoint" />
            <mxPoint x="1160" y="880" as="targetPoint" />
          </mxGeometry>
        </mxCell>
        <mxCell id="XlSBd1ULNjPI1XOx45w8-111" value="getIdntfdBnkChkDpstAmt()" style="text;whiteSpace=wrap;verticalAlign=middle;align=center;" vertex="1" parent="1">
          <mxGeometry x="820" y="910" width="180" height="40" as="geometry" />
        </mxCell>
        <mxCell id="XlSBd1ULNjPI1XOx45w8-112" value="" style="endArrow=block;html=1;rounded=0;endFill=1;" edge="1" parent="1">
          <mxGeometry width="50" height="50" relative="1" as="geometry">
            <mxPoint x="82" y="940" as="sourcePoint" />
            <mxPoint x="980" y="940" as="targetPoint" />
          </mxGeometry>
        </mxCell>
        <mxCell id="XlSBd1ULNjPI1XOx45w8-113" value="_getDpstTxVldtnBizProc()" style="text;whiteSpace=wrap;verticalAlign=middle;align=center;" vertex="1" parent="1">
          <mxGeometry x="270" y="950" width="170" height="40" as="geometry" />
        </mxCell>
        <mxCell id="XlSBd1ULNjPI1XOx45w8-114" value="" style="endArrow=block;html=1;rounded=0;endFill=1;" edge="1" parent="1">
          <mxGeometry width="50" height="50" relative="1" as="geometry">
            <mxPoint x="80" y="980" as="sourcePoint" />
            <mxPoint x="441" y="980" as="targetPoint" />
          </mxGeometry>
        </mxCell>
        <mxCell id="XlSBd1ULNjPI1XOx45w8-116" value="_getArrTxMngr().createArrTx()" style="text;whiteSpace=wrap;verticalAlign=middle;align=center;" vertex="1" parent="1">
          <mxGeometry x="507" y="1000" width="190" height="40" as="geometry" />
        </mxCell>
        <mxCell id="XlSBd1ULNjPI1XOx45w8-117" value="" style="endArrow=block;html=1;rounded=0;endFill=1;" edge="1" parent="1">
          <mxGeometry width="50" height="50" relative="1" as="geometry">
            <mxPoint x="82" y="1030" as="sourcePoint" />
            <mxPoint x="692" y="1030" as="targetPoint" />
          </mxGeometry>
        </mxCell>
        <mxCell id="XlSBd1ULNjPI1XOx45w8-118" value="" style="endArrow=none;html=1;rounded=0;endFill=0;startArrow=block;startFill=1;dashed=1;" edge="1" parent="1">
          <mxGeometry width="50" height="50" relative="1" as="geometry">
            <mxPoint x="82" y="1070" as="sourcePoint" />
            <mxPoint x="692" y="1070" as="targetPoint" />
          </mxGeometry>
        </mxCell>
        <mxCell id="XlSBd1ULNjPI1XOx45w8-119" value="ArrTx arrTx" style="text;whiteSpace=wrap;verticalAlign=middle;align=center;" vertex="1" parent="1">
          <mxGeometry x="100" y="1040" width="90" height="40" as="geometry" />
        </mxCell>
        <mxCell id="XlSBd1ULNjPI1XOx45w8-121" value="ArrIntRtProvider" style="text;whiteSpace=wrap;verticalAlign=middle;align=center;strokeColor=default;" vertex="1" parent="1">
          <mxGeometry x="1270" y="30" width="120" height="40" as="geometry" />
        </mxCell>
        <mxCell id="XlSBd1ULNjPI1XOx45w8-122" style="edgeStyle=orthogonalEdgeStyle;rounded=0;orthogonalLoop=1;jettySize=auto;html=1;dashed=1;endArrow=none;endFill=0;" edge="1" parent="1">
          <mxGeometry relative="1" as="geometry">
            <mxPoint x="1330" y="2200" as="targetPoint" />
            <mxPoint x="1330.1726315789476" y="70" as="sourcePoint" />
            <Array as="points">
              <mxPoint x="1330" y="2200" />
            </Array>
          </mxGeometry>
        </mxCell>
        <mxCell id="XlSBd1ULNjPI1XOx45w8-123" value="_getArrIntRtProvider()" style="text;whiteSpace=wrap;verticalAlign=middle;align=center;" vertex="1" parent="1">
          <mxGeometry x="1166" y="1070" width="150" height="40" as="geometry" />
        </mxCell>
        <mxCell id="XlSBd1ULNjPI1XOx45w8-124" value="" style="endArrow=block;html=1;rounded=0;endFill=1;" edge="1" parent="1">
          <mxGeometry width="50" height="50" relative="1" as="geometry">
            <mxPoint x="82" y="1100" as="sourcePoint" />
            <mxPoint x="1330" y="1100" as="targetPoint" />
          </mxGeometry>
        </mxCell>
        <mxCell id="XlSBd1ULNjPI1XOx45w8-126" value="getArrXtnInfo()" style="text;whiteSpace=wrap;verticalAlign=middle;align=center;" vertex="1" parent="1">
          <mxGeometry x="712" y="1110" width="100" height="40" as="geometry" />
        </mxCell>
        <mxCell id="XlSBd1ULNjPI1XOx45w8-127" value="" style="endArrow=block;html=1;rounded=0;endFill=1;entryX=1;entryY=1;entryDx=0;entryDy=0;" edge="1" parent="1">
          <mxGeometry width="50" height="50" relative="1" as="geometry">
            <mxPoint x="82" y="1140" as="sourcePoint" />
            <mxPoint x="827" y="1140.53" as="targetPoint" />
          </mxGeometry>
        </mxCell>
        <mxCell id="XlSBd1ULNjPI1XOx45w8-128" value="" style="endArrow=none;html=1;rounded=0;endFill=0;startArrow=block;startFill=1;dashed=1;" edge="1" parent="1">
          <mxGeometry width="50" height="50" relative="1" as="geometry">
            <mxPoint x="82" y="1180" as="sourcePoint" />
            <mxPoint x="820" y="1180" as="targetPoint" />
          </mxGeometry>
        </mxCell>
        <mxCell id="XlSBd1ULNjPI1XOx45w8-129" value="String psbkIssueYn" style="text;whiteSpace=wrap;verticalAlign=middle;align=center;" vertex="1" parent="1">
          <mxGeometry x="90" y="1150" width="140" height="40" as="geometry" />
        </mxCell>
        <mxCell id="XlSBd1ULNjPI1XOx45w8-136" value="CustMngr" style="text;whiteSpace=wrap;verticalAlign=middle;align=center;strokeColor=default;" vertex="1" parent="1">
          <mxGeometry x="1410" y="30" width="120" height="40" as="geometry" />
        </mxCell>
        <mxCell id="XlSBd1ULNjPI1XOx45w8-137" style="edgeStyle=orthogonalEdgeStyle;rounded=0;orthogonalLoop=1;jettySize=auto;html=1;dashed=1;endArrow=none;endFill=0;" edge="1" parent="1">
          <mxGeometry relative="1" as="geometry">
            <mxPoint x="1480" y="2200" as="targetPoint" />
            <mxPoint x="1470.1726315789476" y="70" as="sourcePoint" />
            <Array as="points">
              <mxPoint x="1480" y="70" />
              <mxPoint x="1480" y="2190" />
            </Array>
          </mxGeometry>
        </mxCell>
        <mxCell id="XlSBd1ULNjPI1XOx45w8-138" value="getCust()" style="text;whiteSpace=wrap;verticalAlign=middle;align=center;" vertex="1" parent="1">
          <mxGeometry x="1360" y="1200" width="70" height="40" as="geometry" />
        </mxCell>
        <mxCell id="XlSBd1ULNjPI1XOx45w8-139" value="" style="endArrow=block;html=1;rounded=0;endFill=1;" edge="1" parent="1">
          <mxGeometry width="50" height="50" relative="1" as="geometry">
            <mxPoint x="78" y="1230" as="sourcePoint" />
            <mxPoint x="1470" y="1230" as="targetPoint" />
          </mxGeometry>
        </mxCell>
        <mxCell id="XlSBd1ULNjPI1XOx45w8-141" value="" style="endArrow=none;html=1;rounded=0;endFill=0;startArrow=block;startFill=1;" edge="1" parent="1">
          <mxGeometry width="50" height="50" relative="1" as="geometry">
            <mxPoint x="827" y="1280" as="sourcePoint" />
            <mxPoint x="1470" y="1280" as="targetPoint" />
          </mxGeometry>
        </mxCell>
        <mxCell id="XlSBd1ULNjPI1XOx45w8-142" value="getMainArrCustId()" style="text;whiteSpace=wrap;verticalAlign=middle;align=center;" vertex="1" parent="1">
          <mxGeometry x="1330" y="1250" width="130" height="40" as="geometry" />
        </mxCell>
        <mxCell id="XlSBd1ULNjPI1XOx45w8-145" value="" style="endArrow=block;html=1;rounded=0;endFill=1;dashed=1;" edge="1" parent="1">
          <mxGeometry width="50" height="50" relative="1" as="geometry">
            <mxPoint x="827" y="1320" as="sourcePoint" />
            <mxPoint x="1470" y="1320" as="targetPoint" />
          </mxGeometry>
        </mxCell>
        <mxCell id="XlSBd1ULNjPI1XOx45w8-146" value="getCust()" style="text;whiteSpace=wrap;verticalAlign=middle;align=center;" vertex="1" parent="1">
          <mxGeometry x="1360" y="1290" width="70" height="40" as="geometry" />
        </mxCell>
        <mxCell id="XlSBd1ULNjPI1XOx45w8-147" value="" style="endArrow=none;html=1;rounded=0;endFill=0;startArrow=block;startFill=1;dashed=1;" edge="1" parent="1">
          <mxGeometry width="50" height="50" relative="1" as="geometry">
            <mxPoint x="80" y="1380" as="sourcePoint" />
            <mxPoint x="1472" y="1380" as="targetPoint" />
          </mxGeometry>
        </mxCell>
        <mxCell id="XlSBd1ULNjPI1XOx45w8-148" value="Cust cust" style="text;whiteSpace=wrap;verticalAlign=middle;align=center;" vertex="1" parent="1">
          <mxGeometry x="110" y="1350" width="80" height="40" as="geometry" />
        </mxCell>
        <mxCell id="XlSBd1ULNjPI1XOx45w8-150" value="ArrReal" style="text;whiteSpace=wrap;verticalAlign=middle;align=center;strokeColor=default;" vertex="1" parent="1">
          <mxGeometry x="1540" y="30" width="120" height="40" as="geometry" />
        </mxCell>
        <mxCell id="XlSBd1ULNjPI1XOx45w8-151" style="edgeStyle=orthogonalEdgeStyle;rounded=0;orthogonalLoop=1;jettySize=auto;html=1;dashed=1;endArrow=none;endFill=0;" edge="1" parent="1">
          <mxGeometry relative="1" as="geometry">
            <mxPoint x="1599" y="2200" as="targetPoint" />
            <mxPoint x="1600.1726315789476" y="70" as="sourcePoint" />
            <Array as="points">
              <mxPoint x="1599" y="1136" />
            </Array>
          </mxGeometry>
        </mxCell>
        <mxCell id="XlSBd1ULNjPI1XOx45w8-152" value="get360()" style="text;whiteSpace=wrap;verticalAlign=middle;align=center;" vertex="1" parent="1">
          <mxGeometry x="1500" y="1390" width="80" height="40" as="geometry" />
        </mxCell>
        <mxCell id="XlSBd1ULNjPI1XOx45w8-153" value="" style="endArrow=block;html=1;rounded=0;endFill=1;" edge="1" parent="1">
          <mxGeometry width="50" height="50" relative="1" as="geometry">
            <mxPoint x="80" y="1420" as="sourcePoint" />
            <mxPoint x="1600" y="1420" as="targetPoint" />
          </mxGeometry>
        </mxCell>
        <mxCell id="XlSBd1ULNjPI1XOx45w8-154" value="" style="endArrow=none;html=1;rounded=0;endFill=0;dashed=1;startArrow=block;startFill=1;" edge="1" parent="1">
          <mxGeometry width="50" height="50" relative="1" as="geometry">
            <mxPoint x="80" y="1470" as="sourcePoint" />
            <mxPoint x="1600" y="1470" as="targetPoint" />
          </mxGeometry>
        </mxCell>
        <mxCell id="XlSBd1ULNjPI1XOx45w8-155" value="Arr360 arr360" style="text;whiteSpace=wrap;verticalAlign=middle;align=center;" vertex="1" parent="1">
          <mxGeometry x="100" y="1440" width="110" height="40" as="geometry" />
        </mxCell>
        <mxCell id="XlSBd1ULNjPI1XOx45w8-157" value="TrnsfrLng" style="text;whiteSpace=wrap;verticalAlign=middle;align=center;strokeColor=default;" vertex="1" parent="1">
          <mxGeometry x="1910" y="30" width="120" height="40" as="geometry" />
        </mxCell>
        <mxCell id="XlSBd1ULNjPI1XOx45w8-158" style="edgeStyle=orthogonalEdgeStyle;rounded=0;orthogonalLoop=1;jettySize=auto;html=1;dashed=1;endArrow=none;endFill=0;" edge="1" parent="1">
          <mxGeometry relative="1" as="geometry">
            <mxPoint x="1969" y="2200" as="targetPoint" />
            <mxPoint x="1970.1726315789476" y="70" as="sourcePoint" />
            <Array as="points">
              <mxPoint x="1969" y="1136" />
            </Array>
          </mxGeometry>
        </mxCell>
        <mxCell id="XlSBd1ULNjPI1XOx45w8-159" value="_getTrnsfrLng()" style="text;whiteSpace=wrap;verticalAlign=middle;align=center;" vertex="1" parent="1">
          <mxGeometry x="1790" y="1520" width="120" height="40" as="geometry" />
        </mxCell>
        <mxCell id="XlSBd1ULNjPI1XOx45w8-160" value="DpstArrOpnSvcMblOut" style="text;whiteSpace=wrap;verticalAlign=middle;align=center;strokeColor=default;" vertex="1" parent="1">
          <mxGeometry x="1680" y="30" width="150" height="40" as="geometry" />
        </mxCell>
        <mxCell id="XlSBd1ULNjPI1XOx45w8-161" style="edgeStyle=orthogonalEdgeStyle;rounded=0;orthogonalLoop=1;jettySize=auto;html=1;dashed=1;endArrow=none;endFill=0;" edge="1" parent="1">
          <mxGeometry relative="1" as="geometry">
            <mxPoint x="1739" y="2203.5555013020835" as="targetPoint" />
            <mxPoint x="1740.1726315789476" y="70" as="sourcePoint" />
            <Array as="points">
              <mxPoint x="1739" y="1137" />
            </Array>
          </mxGeometry>
        </mxCell>
        <mxCell id="XlSBd1ULNjPI1XOx45w8-162" value="_setMblList()" style="text;whiteSpace=wrap;" vertex="1" parent="1">
          <mxGeometry x="1640" y="1496" width="90" height="40" as="geometry" />
        </mxCell>
        <mxCell id="XlSBd1ULNjPI1XOx45w8-163" value="" style="endArrow=block;html=1;rounded=0;endFill=1;" edge="1" parent="1">
          <mxGeometry width="50" height="50" relative="1" as="geometry">
            <mxPoint x="80" y="1520" as="sourcePoint" />
            <mxPoint x="1740" y="1520" as="targetPoint" />
          </mxGeometry>
        </mxCell>
        <mxCell id="XlSBd1ULNjPI1XOx45w8-164" value="" style="endArrow=block;html=1;rounded=0;endFill=1;" edge="1" parent="1">
          <mxGeometry width="50" height="50" relative="1" as="geometry">
            <mxPoint x="1740" y="1550" as="sourcePoint" />
            <mxPoint x="1970" y="1550" as="targetPoint" />
          </mxGeometry>
        </mxCell>
        <mxCell id="XlSBd1ULNjPI1XOx45w8-166" value="" style="endArrow=none;html=1;rounded=0;endFill=0;dashed=1;startArrow=block;startFill=1;" edge="1" parent="1">
          <mxGeometry width="50" height="50" relative="1" as="geometry">
            <mxPoint x="1740" y="1589.47" as="sourcePoint" />
            <mxPoint x="1970" y="1589.47" as="targetPoint" />
          </mxGeometry>
        </mxCell>
        <mxCell id="XlSBd1ULNjPI1XOx45w8-167" value="List&lt;DpstArrOpnSvcMblOut&gt; mblList" style="text;whiteSpace=wrap;verticalAlign=middle;align=center;" vertex="1" parent="1">
          <mxGeometry x="80" y="1590" width="230" height="40" as="geometry" />
        </mxCell>
        <mxCell id="XlSBd1ULNjPI1XOx45w8-169" value="_setMblList()" style="text;whiteSpace=wrap;" vertex="1" parent="1">
          <mxGeometry x="1810" y="1565" width="90" height="40" as="geometry" />
        </mxCell>
        <mxCell id="XlSBd1ULNjPI1XOx45w8-171" value="" style="endArrow=none;html=1;rounded=0;endFill=0;dashed=1;startArrow=block;startFill=1;" edge="1" parent="1">
          <mxGeometry width="50" height="50" relative="1" as="geometry">
            <mxPoint x="80" y="1620" as="sourcePoint" />
            <mxPoint x="1740" y="1620" as="targetPoint" />
          </mxGeometry>
        </mxCell>
        <mxCell id="XlSBd1ULNjPI1XOx45w8-173" value="ArrBalMngr" style="text;whiteSpace=wrap;verticalAlign=middle;align=center;strokeColor=default;" vertex="1" parent="1">
          <mxGeometry x="2050" y="30" width="120" height="40" as="geometry" />
        </mxCell>
        <mxCell id="XlSBd1ULNjPI1XOx45w8-174" style="edgeStyle=orthogonalEdgeStyle;rounded=0;orthogonalLoop=1;jettySize=auto;html=1;dashed=1;endArrow=none;endFill=0;" edge="1" parent="1">
          <mxGeometry relative="1" as="geometry">
            <mxPoint x="2109" y="2200" as="targetPoint" />
            <mxPoint x="2110.1726315789474" y="70" as="sourcePoint" />
            <Array as="points">
              <mxPoint x="2109" y="1136" />
            </Array>
          </mxGeometry>
        </mxCell>
        <mxCell id="XlSBd1ULNjPI1XOx45w8-175" value="_getArrBalMngr()" style="text;whiteSpace=wrap;verticalAlign=middle;align=center;" vertex="1" parent="1">
          <mxGeometry x="1970" y="1650" width="130" height="40" as="geometry" />
        </mxCell>
        <mxCell id="XlSBd1ULNjPI1XOx45w8-176" value="" style="endArrow=block;html=1;rounded=0;endFill=1;" edge="1" parent="1">
          <mxGeometry width="50" height="50" relative="1" as="geometry">
            <mxPoint x="80" y="1680" as="sourcePoint" />
            <mxPoint x="2110" y="1680" as="targetPoint" />
          </mxGeometry>
        </mxCell>
        <mxCell id="XlSBd1ULNjPI1XOx45w8-177" value="" style="endArrow=none;html=1;rounded=0;endFill=0;dashed=1;startArrow=block;startFill=1;" edge="1" parent="1">
          <mxGeometry width="50" height="50" relative="1" as="geometry">
            <mxPoint x="80" y="1719" as="sourcePoint" />
            <mxPoint x="2110" y="1719" as="targetPoint" />
          </mxGeometry>
        </mxCell>
        <mxCell id="XlSBd1ULNjPI1XOx45w8-178" value="ArrBal arrBal" style="text;whiteSpace=wrap;verticalAlign=middle;align=center;" vertex="1" parent="1">
          <mxGeometry x="100" y="1690" width="100" height="40" as="geometry" />
        </mxCell>
        <mxCell id="XlSBd1ULNjPI1XOx45w8-179" value="_setMblList()" style="text;whiteSpace=wrap;" vertex="1" parent="1">
          <mxGeometry x="1640" y="1740" width="90" height="40" as="geometry" />
        </mxCell>
        <mxCell id="XlSBd1ULNjPI1XOx45w8-180" value="" style="endArrow=block;html=1;rounded=0;endFill=1;" edge="1" parent="1">
          <mxGeometry width="50" height="50" relative="1" as="geometry">
            <mxPoint x="80" y="1764" as="sourcePoint" />
            <mxPoint x="1740" y="1764" as="targetPoint" />
          </mxGeometry>
        </mxCell>
        <mxCell id="XlSBd1ULNjPI1XOx45w8-183" value="_getTrnsfrLng()" style="text;whiteSpace=wrap;verticalAlign=middle;align=center;" vertex="1" parent="1">
          <mxGeometry x="1790" y="1760" width="120" height="40" as="geometry" />
        </mxCell>
        <mxCell id="XlSBd1ULNjPI1XOx45w8-184" value="" style="endArrow=block;html=1;rounded=0;endFill=1;" edge="1" parent="1">
          <mxGeometry width="50" height="50" relative="1" as="geometry">
            <mxPoint x="1740" y="1790" as="sourcePoint" />
            <mxPoint x="1970" y="1790" as="targetPoint" />
          </mxGeometry>
        </mxCell>
        <mxCell id="XlSBd1ULNjPI1XOx45w8-185" value="" style="endArrow=none;html=1;rounded=0;endFill=0;dashed=1;startArrow=block;startFill=1;" edge="1" parent="1">
          <mxGeometry width="50" height="50" relative="1" as="geometry">
            <mxPoint x="1740" y="1829.47" as="sourcePoint" />
            <mxPoint x="1970" y="1829.47" as="targetPoint" />
          </mxGeometry>
        </mxCell>
        <mxCell id="XlSBd1ULNjPI1XOx45w8-186" value="_setMblList()" style="text;whiteSpace=wrap;" vertex="1" parent="1">
          <mxGeometry x="1810" y="1805" width="90" height="40" as="geometry" />
        </mxCell>
        <mxCell id="XlSBd1ULNjPI1XOx45w8-187" value="List&lt;DpstArrOpnSvcMblOut&gt; mblList" style="text;whiteSpace=wrap;verticalAlign=middle;align=center;" vertex="1" parent="1">
          <mxGeometry x="80" y="1830" width="230" height="40" as="geometry" />
        </mxCell>
        <mxCell id="XlSBd1ULNjPI1XOx45w8-188" value="" style="endArrow=none;html=1;rounded=0;endFill=0;dashed=1;startArrow=block;startFill=1;" edge="1" parent="1">
          <mxGeometry width="50" height="50" relative="1" as="geometry">
            <mxPoint x="80" y="1860" as="sourcePoint" />
            <mxPoint x="1740" y="1860" as="targetPoint" />
          </mxGeometry>
        </mxCell>
      </root>
    </mxGraphModel>
  </diagram>
</mxfile>
